<?xml version="1.0" encoding="iso-8859-1"?>
<!-- Generator: Adobe Illustrator 18.1.1, SVG Export Plug-In . SVG Version: 6.00 Build 0)  -->
<svg version="1.1" id="Capa_1" xmlns="http://www.w3.org/2000/svg" xmlns:xlink="http://www.w3.org/1999/xlink" x="0px" y="0px"
	 viewBox="0 0 52.52 52.52" style="enable-background:new 0 0 52.52 52.52;" xml:space="preserve">
<g>
	<path style="fill:#005582;" d="M25.027,45.061c-0.914,0-1.658,0.744-1.658,1.658s0.744,1.658,1.658,1.658s1.658-0.744,1.658-1.658
		S25.941,45.061,25.027,45.061z M25.027,47.627c-0.501,0-0.908-0.407-0.908-0.908s0.407-0.908,0.908-0.908
		c0.501,0,0.908,0.407,0.908,0.908C25.935,47.22,25.528,47.627,25.027,47.627z M49.544,3.376C49.482,1.799,47.538,0,45.896,0
		c-0.061,0-0.121,0.003-0.183,0.008c-0.956,0.085-1.833,0.529-2.469,1.252L27.768,18.861c-0.129,0.146-0.229,0.298-0.3,0.409H9.099
		c-3.377,0-6.125,2.748-6.125,6.125v21c0,3.377,2.748,6.125,6.125,6.125h30c3.377,0,6.125-2.748,6.125-6.125v-21
		c0-3.377-2.748-6.125-6.125-6.125h-2.164L48.618,5.983C49.253,5.26,49.581,4.335,49.544,3.376z M39.099,21.522
		c2.137,0,3.875,1.738,3.875,3.875v21c0,2.137-1.738,3.875-3.875,3.875h-30c-2.137,0-3.875-1.738-3.875-3.875V25.395
		c0-2.137,1.738-3.875,3.875-3.875h17.03c-0.449,0.862-0.882,1.784-1.278,2.708H8.739c-0.297,0-0.537,0.24-0.537,0.537v16.753
		c0,0.297,0.24,0.538,0.537,0.538h30.72c0.297,0,0.538-0.241,0.538-0.538V24.766c0-0.297-0.241-0.537-0.538-0.537h-6.965
		c0.162-0.162,0.322-0.31,0.485-0.481c0.057-0.052,0.11-0.104,0.161-0.161l1.816-2.065C34.956,21.522,39.099,21.522,39.099,21.522z
		 M33.122,32.358c-3.35,1.643-4.366-2.62-6.732-3.19c1.737-1.275,3.174-2.371,4.257-3.248c0.237-0.191,0.472-0.407,0.708-0.615
		h7.567v15.679H9.276V25.303h15.127c-0.294,0.724-0.565,1.425-0.802,2.066c-0.333,0.901-0.335,1.599-0.004,2.075
		c0.104,0.15,0.244,0.257,0.396,0.343c-0.577,0.397-1.146,0.924-1.399,1.382c-0.498,0.903-0.972,1.694-1.134,2.72
		c-0.17,1.077,0.105,0.665-0.736-0.402c-1.349-1.712-3.178-4.699-5.758-4.107c-2.84,0.65-2.545,3.874-2.571,6.255
		c-0.005,0.418,1.925,0.114,1.932-0.518c0.015-1.304,0.06-2.589,0.288-3.875c0.331-1.867,2.282,0.464,2.841,0.98
		c1.064,0.985,1.598,2.954,2.974,3.585c0.635,0.291,1.26,0.177,1.852-0.188c2.173-1.341,0.662-4.121,3.104-5.596
		c1.799,1.202,2.825,3.041,5.216,3.607c1.305,0.31,2.556-0.357,3.665-0.901C35.424,32.162,33.64,32.104,33.122,32.358z
		 M47.491,4.992L34.929,19.27l-1.979,2.25c0,0-0.541,0.679-0.998,1.135c-0.457,0.456-1.144,1.156-1.647,1.573
		s-1.294,1.074-1.294,1.074s-2.236,1.723-3.702,2.797c-0.18,0.132-0.326,0.217-0.438,0.271c0.021-0.116,0.062-0.274,0.138-0.48
		c0.294-0.794,0.642-1.684,1.021-2.588l0.464-1.074c-0.002,0,0.873-1.874,1.342-2.708c0,0,0.828-1.406,1.57-2.25
		S44.371,2.249,44.371,2.249c0.39-0.442,0.911-0.695,1.551-0.751c0.827,0.01,2.093,1.161,2.122,1.936
		C48.067,4.008,47.87,4.561,47.491,4.992z M45.023,4.166c0.208,0.182,0.23,0.497,0.047,0.705L29.904,22.204
		c-0.099,0.113-0.237,0.171-0.376,0.171c-0.117,0-0.234-0.041-0.329-0.124c-0.208-0.182-0.23-0.497-0.047-0.705L44.318,4.213
		C44.5,4.004,44.816,3.984,45.023,4.166z"/>
</g>
<g>
</g>
<g>
</g>
<g>
</g>
<g>
</g>
<g>
</g>
<g>
</g>
<g>
</g>
<g>
</g>
<g>
</g>
<g>
</g>
<g>
</g>
<g>
</g>
<g>
</g>
<g>
</g>
<g>
</g>
</svg>
