<?xml version="1.0" encoding="UTF-8" standalone="no"?>
<!-- Created with Inkscape (http://www.inkscape.org/) -->

<svg
   xmlns:dc="http://purl.org/dc/elements/1.1/"
   xmlns:cc="http://creativecommons.org/ns#"
   xmlns:rdf="http://www.w3.org/1999/02/22-rdf-syntax-ns#"
   xmlns:svg="http://www.w3.org/2000/svg"
   xmlns="http://www.w3.org/2000/svg"
   xmlns:sodipodi="http://sodipodi.sourceforge.net/DTD/sodipodi-0.dtd"
   xmlns:inkscape="http://www.inkscape.org/namespaces/inkscape"
   width="282.27234"
   height="280.22131"
   id="svg2"
   sodipodi:version="0.32"
   inkscape:version="0.91 r13725"
   sodipodi:docname="Steren_France_clip_art.svg"
   inkscape:output_extension="org.inkscape.output.svg.inkscape"
   version="1.0">
  <defs
     id="defs4" />
  <sodipodi:namedview
     id="base"
     pagecolor="#ffffff"
     bordercolor="#666666"
     borderopacity="1.0"
     inkscape:pageopacity="0.0"
     inkscape:pageshadow="2"
     inkscape:zoom="1.1893255"
     inkscape:cx="144.64916"
     inkscape:cy="242.38298"
     inkscape:document-units="px"
     inkscape:current-layer="layer1"
     inkscape:window-width="1280"
     inkscape:window-height="742"
     inkscape:window-x="64"
     inkscape:window-y="39"
     width="14cm"
     height="11cm"
     units="cm"
     showgrid="false"
     inkscape:window-maximized="0" />
  <metadata
     id="metadata7">
    <rdf:RDF>
      <cc:Work
         rdf:about="">
        <dc:format>image/svg+xml</dc:format>
        <dc:type
           rdf:resource="http://purl.org/dc/dcmitype/StillImage" />
        <cc:license
           rdf:resource="http://web.resource.org/cc/PublicDomain" />
        <dc:title>france</dc:title>
        <dc:creator>
          <cc:Agent>
            <dc:title>Steren Giannini</dc:title>
          </cc:Agent>
        </dc:creator>
        <dc:subject>
          <rdf:Bag>
            <rdf:li>france country</rdf:li>
          </rdf:Bag>
        </dc:subject>
      </cc:Work>
      <cc:License
         rdf:about="http://web.resource.org/cc/PublicDomain">
        <cc:permits
           rdf:resource="http://web.resource.org/cc/Reproduction" />
        <cc:permits
           rdf:resource="http://web.resource.org/cc/Distribution" />
        <cc:permits
           rdf:resource="http://web.resource.org/cc/DerivativeWorks" />
      </cc:License>
    </rdf:RDF>
  </metadata>
  <g
     inkscape:label="Calque 1"
     inkscape:groupmode="layer"
     id="layer1"
     transform="translate(-185.0853,-75.182195)">
    <path
       style="fill:#005582"
       d="M 327.78146,354.95709 C 311.6268,352.86141 285.73473,342.56795 253.73923,325.52141 C 240.63641,318.54049 238.9678,317.42497 238.73766,315.49236 C 238.48187,313.34441 238.61853,313.39227 249.93575,319.41473 C 269.86028,330.01756 288.72529,339.03473 290.98317,339.03473 C 291.79625,339.03473 293.02974,339.51879 293.72427,340.11045 C 295.27466,341.43116 301.47018,343.89301 304.18548,344.2673 C 305.28529,344.4189 308.1648,345.22924 310.58439,346.06805 C 313.00398,346.90685 316.9633,348.05424 319.38289,348.6178 C 321.80248,349.18135 324.15215,349.933 324.60437,350.28812 C 325.05661,350.64323 328.12517,351.17832 331.42339,351.47719 C 338.55126,352.12311 344.61607,351.04364 352.60324,347.70744 L 358.2283,345.35787 L 357.63908,338.79688 C 357.1336,333.16845 357.27202,331.75394 358.61289,328.84518 C 359.47256,326.98029 360.17593,324.97127 360.17593,324.38067 C 360.17593,323.29324 365.90843,319.33601 370.01388,317.5894 C 376.85074,314.68074 396.81432,314.81904 410.56734,317.87035 C 423.5333,320.74704 435.76482,320.89945 443.6293,318.28232 C 446.55722,317.30798 449.25151,315.97702 449.61659,315.32465 C 449.98168,314.67228 450.87558,314.05116 451.60304,313.9444 C 453.6043,313.65067 456.65798,310.49847 461.58465,303.64076 C 466.12656,297.31862 468.8665,295.15233 465.84612,300.2715 C 461.9992,306.79153 455.20217,315.07035 451.74082,317.45182 C 444.63415,322.34133 440.27748,323.41673 427.7644,323.37011 C 418.93736,323.33722 414.95739,322.93998 408.96761,321.49403 C 398.48935,318.96454 380.3444,318.28883 372.97375,320.15365 C 370.11424,320.87712 366.33488,322.46669 364.57518,323.68602 C 360.42095,326.56459 359.22104,329.87233 359.8778,336.63513 C 361.05706,348.7784 361.36894,347.61173 356.25302,350.19425 C 347.34874,354.68911 337.90004,356.26973 327.78146,354.95709 z M 241.79612,313.08781 C 241.79612,312.8946 243.17043,311.14863 244.85015,309.20788 C 250.04951,303.20049 254.49724,286.05139 255.78487,267.047 C 256.48659,256.68991 257.55789,251.60417 259.47024,249.5515 L 261.08172,247.82178 L 258.51973,245.6364 C 257.11063,244.43444 255.47091,243.16319 254.87591,242.81139 C 254.2435,242.43747 253.78917,240.77604 253.78225,238.81207 C 253.74209,227.39849 245.53103,209.97427 234.50999,197.9155 C 229.28552,192.19909 219.28475,184.36883 211.40131,179.82217 C 206.11187,176.77156 204.64171,176.30489 198.97141,175.87655 C 191.51088,175.31299 189.06665,173.9547 186.61716,169.01115 C 184.57629,164.89227 184.57477,161.91738 186.61207,159.05625 C 189.06411,155.61268 189.3128,152.70657 187.46152,149.12964 C 186.24941,146.78768 186.0614,145.72346 186.71962,144.93035 C 188.12169,143.24095 189.00361,143.66902 190.24574,146.64185 C 191.87641,150.5446 191.70365,152.5524 189.32674,157.32223 L 187.24877,161.49218 L 189.12678,165.27679 C 191.81967,170.70358 195.15043,172.66016 201.72126,172.67515 C 206.90411,172.68696 212.65903,174.09094 213.6826,175.59324 C 213.96762,176.01157 216.98973,178.31296 220.39839,180.70742 C 223.80705,183.10188 227.5864,185.7943 228.79696,186.69057 C 232.14452,189.16902 243.39585,200.53081 243.39585,201.43278 C 243.39585,201.86959 244.68664,204.24482 246.26427,206.71105 C 247.84189,209.17727 249.94521,212.94888 250.93832,215.09239 C 251.93142,217.23588 253.19423,219.53221 253.74457,220.19533 C 254.2949,220.85844 254.58286,221.86302 254.38447,222.42772 C 254.18608,222.99241 254.30696,224.2218 254.65308,225.15969 C 254.99921,226.09759 255.67344,229.6764 256.15137,233.11262 C 257.01575,239.32731 257.04406,239.38143 261.51254,243.36412 C 267.68467,248.86526 272.9908,256.3039 272.9908,259.45546 C 272.9908,261.7513 271.10723,265.56127 270.42462,264.64616 C 266.64466,259.57864 260.75447,252.64946 260.22676,252.64946 C 259.84332,252.64946 259.30286,255.43898 259.02571,258.8484 C 258.57602,264.38056 257.61194,273.46196 256.6269,281.44455 C 255.92124,287.16315 252.28027,299.72219 250.11343,303.91188 C 248.88231,306.29233 247.93567,308.47587 248.0098,308.76418 C 248.08392,309.0525 246.92015,310.2223 245.42365,311.36374 C 242.80933,313.35778 241.79612,313.83933 241.79612,313.08781 z M 460.50128,293.93741 C 455.49682,291.6071 448.11185,285.17686 446.73885,281.95418 C 446.17668,280.63465 445.29261,279.04402 444.77425,278.41944 C 444.2559,277.79487 443.74031,276.87023 443.62849,276.36471 C 443.51668,275.85918 442.51985,272.38609 441.41331,268.64673 C 438.29328,258.10303 438.70794,242.26568 442.21933,237.86197 C 443.87023,235.79154 444.14829,235.68678 444.63389,236.95225 C 444.96121,237.8052 444.52545,239.56667 443.55421,241.31666 C 437.211,252.74596 441.4979,273.0555 452.59619,284.1538 C 456.18137,287.73897 463.28994,291.84277 465.91497,291.84277 C 466.92059,291.84277 467.35765,292.44858 467.35765,293.84243 C 467.35765,296.39453 465.8237,296.41578 460.50128,293.93741 z M 249.05295,239.34384 C 247.06143,236.81203 246.77134,231.85301 248.61476,231.85301 C 249.94717,231.85301 250.87222,233.8196 251.71871,238.45188 C 252.3683,242.00661 251.40185,242.32999 249.05295,239.34384 z M 249.75809,235.78382 C 249.26705,234.86629 248.66318,234.31768 248.41618,234.5647 C 248.16916,234.8117 248.42237,235.56241 248.97885,236.23292 C 250.41686,237.96562 250.80579,237.74146 249.75809,235.78382 z M 444.68923,233.24219 C 439.91115,223.47613 431.31278,221.05254 428.19,228.5916 C 427.62922,229.94544 426.82987,231.05314 426.41367,231.05314 C 424.63882,231.05314 428.84093,222.78003 431.04546,221.93407 C 436.3768,219.88826 444.18443,225.05124 446.53642,232.17786 C 448.26885,237.42718 447.07368,238.11583 444.68923,233.24219 z M 422.13273,226.45393 C 422.20457,224.36428 422.47015,222.11467 422.7229,221.45478 C 423.57865,219.2206 425.30691,213.06188 425.34598,212.1073 C 425.36734,211.58541 426.21251,210.14565 427.22414,208.90785 C 428.23575,207.67005 429.65863,205.66747 430.38608,204.45768 C 431.11352,203.24789 431.99103,202.25805 432.33611,202.25805 C 433.3161,202.25805 433.12635,202.7456 430.58969,206.74551 C 427.33223,211.88198 425.52153,217.73923 425.42571,223.44997 C 425.34059,228.52272 424.73281,230.25328 423.03636,230.25328 C 422.31744,230.25328 422.04194,229.09493 422.13273,226.45393 z M 245.19554,228.47719 C 243.02453,227.43015 242.76354,224.65423 244.83612,224.65423 C 247.30722,224.65423 250.58186,226.58944 250.58838,228.05365 C 250.59553,229.65857 248.0583,229.85784 245.19554,228.47719 z M 434.43058,199.25857 C 435.29737,198.04877 436.94161,196.18634 438.08443,195.11982 C 439.22725,194.0533 440.16229,192.74721 440.16229,192.21738 C 440.16229,191.68755 441.21624,190.81749 442.5044,190.28391 C 443.79257,189.75033 445.04106,188.80682 445.27882,188.18721 C 445.53879,187.50975 446.84839,187.06065 448.5639,187.06065 C 451.1688,187.06065 451.34228,187.19964 450.56051,188.66037 C 450.08964,189.54022 449.05116,190.2601 448.25279,190.2601 C 446.40836,190.2601 441.07897,194.10567 437.17845,198.25111 C 433.72499,201.9214 432.09436,202.51924 434.43058,199.25857 z M 206.20219,187.8497 C 203.57541,186.82698 200.09588,182.67203 200.65217,181.22235 C 201.38147,179.32183 203.90297,178.79533 206.58659,179.98321 C 208.67966,180.9097 208.92855,181.39801 208.86714,184.45754 C 208.78945,188.32793 208.47114,188.7331 206.20219,187.8497 z M 207.39575,184.06116 C 207.38868,182.47533 203.66796,180.38526 202.94226,181.55946 C 202.49622,182.28117 205.58327,185.38025 206.80209,185.43431 C 207.13204,185.44895 207.39918,184.83103 207.39575,184.06116 z M 452.16024,183.06133 C 452.16024,181.74155 452.52018,180.66174 452.96011,180.66174 C 453.40003,180.66174 453.75997,181.74155 453.75997,183.06133 C 453.75997,184.3811 453.40003,185.46092 452.96011,185.46092 C 452.52018,185.46092 452.16024,184.3811 452.16024,183.06133 z M 453.30489,173.33577 C 453.45378,170.4063 453.80027,167.64594 454.07487,167.20164 C 454.34946,166.75734 455.48491,163.25091 456.59809,159.40956 C 457.71127,155.5682 459.63449,149.81791 460.87193,146.63112 L 463.12181,140.83696 L 458.24092,139.77984 C 455.55644,139.19843 452.88341,138.82251 452.30087,138.94447 C 451.71833,139.06643 450.81848,138.81499 450.30121,138.38572 C 449.78394,137.95645 446.30124,136.83312 442.56188,135.88943 C 438.82252,134.94574 432.16365,133.05992 427.7644,131.69871 C 423.36515,130.33749 419.22586,129.1672 418.56597,129.09805 C 417.90608,129.02891 416.6463,128.59188 415.76645,128.12688 C 413.66196,127.01466 407.91515,125.10393 407.22679,125.28757 C 406.92924,125.36695 401.01397,122.56122 394.08176,119.05262 C 387.14956,115.54401 381.02199,112.67334 380.46495,112.67334 C 379.90791,112.67334 379.16431,112.21403 378.8125,111.65266 C 378.4607,111.09129 375.13548,108.48173 371.42312,105.85365 C 358.56797,96.75311 343.79261,80.6128 344.32063,76.24742 C 344.55789,74.28583 344.99234,74.64104 349.73555,80.67483 C 369.26723,105.52092 399.43486,121.30838 452.09115,134.24002 C 459.31191,136.01334 465.38783,137.63226 465.59321,137.83763 C 465.79859,138.04302 465.41293,139.75382 464.73621,141.63943 C 458.85054,158.03905 455.19504,169.0881 454.20761,173.46297 L 453.03416,178.66208 L 453.30489,173.33577 z M 240.1964,148.588 C 236.89696,148.30388 230.778,147.64979 226.59872,147.13446 C 222.41943,146.61913 217.02035,146.23779 214.60076,146.28702 C 212.18117,146.33626 206.42216,146.00779 201.80294,145.55708 C 197.18373,145.10637 192.95445,144.72192 192.40455,144.70274 C 191.85464,144.68356 191.40472,143.72797 191.40472,142.5792 C 191.40472,140.66083 191.61668,140.52835 194.00427,140.9544 C 195.43403,141.20953 202.72279,141.78639 210.20151,142.2363 C 217.68024,142.68621 228.22905,143.64814 233.64331,144.37392 C 241.79611,145.4668 244.06107,145.52165 246.82623,144.69319 C 250.66857,143.542 253.55365,141.46913 255.57102,138.41024 C 257.54402,135.41863 257.36599,134.19522 254.39397,130.32189 C 248.27606,122.34863 248.19503,122.18495 248.19503,117.79952 C 248.19503,112.58801 249.86491,111.07361 255.6115,111.07361 C 262.12551,111.07361 266.62512,114.51624 266.55987,119.45019 L 266.52784,121.87177 L 265.38963,119.7773 C 263.3921,116.10161 256.38212,113.8808 251.59445,115.40692 C 249.04707,116.21892 249.34972,118.39266 252.56944,122.40948 C 256.96894,127.89817 258.0031,130.23902 257.90729,134.49183 C 257.8113,138.75235 256.35812,145.09895 255.64245,144.38328 C 255.3971,144.13794 254.07099,144.75425 252.69553,145.75286 C 248.69465,148.65759 246.57855,149.13758 240.1964,148.588 z M 271.79101,133.55935 C 270.91116,133.18026 269.96943,132.99654 269.69828,133.15108 C 268.65333,133.74664 266.7816,130.51844 266.28888,127.27085 C 265.67628,123.23311 266.40128,122.99231 268.60434,126.50179 C 269.71866,128.27691 271.16368,129.30534 273.28142,129.83053 C 277.50466,130.87785 281.57291,129.30953 294.70867,121.57026 C 300.5808,118.11054 307.93653,113.81172 311.05473,112.01732 C 314.17293,110.22293 318.02195,107.3183 319.60812,105.56261 C 322.52243,102.33683 324.98193,96.00663 324.98193,91.7317 C 324.98193,90.49177 325.25888,89.47728 325.59737,89.47728 C 326.32053,89.47728 325.83477,101.68703 325.08823,102.27511 C 324.80899,102.49507 323.77842,104.31932 322.79807,106.32899 C 320.87046,110.28053 318.81087,111.83589 305.98517,119.02582 C 301.91587,121.30702 298.58644,123.51047 298.58644,123.92238 C 298.58644,124.33427 298.0214,124.67129 297.33079,124.67129 C 296.64018,124.67129 294.57054,125.70269 292.73158,126.96328 C 284.40748,132.66938 275.92606,135.34094 271.79101,133.55935 z M 324.98193,84.29341 C 324.98193,82.91178 325.42187,82.27515 326.3817,82.26781 C 327.15156,82.26192 330.84094,81.18692 334.5803,79.87892 C 338.31966,78.57092 341.46912,77.49592 341.5791,77.49003 C 341.68908,77.48415 341.77907,78.35492 341.77907,79.42509 C 341.77907,80.74325 341.19859,81.552 339.97938,81.93248 C 338.98955,82.24139 337.96246,82.83146 337.69697,83.24375 C 337.43147,83.65604 336.35166,84.10266 335.29737,84.23624 C 334.2431,84.36981 332.30069,84.72643 330.98091,85.02872 C 324.90033,86.42147 324.98193,86.43147 324.98193,84.29341 z "
       id="path2169"
       sodipodi:nodetypes="csssssssssscccssssssssssssssssccsscccsssssssssscccssssssssssssssssssssccssssssssssccssccssccssssccssssssssccssccssssssssccsssccssccsssccsscccssssssssssssssssccccssssssssssssscccsssssccsssssssssssssssccssssssssc" />
    <circle
       style="fill:#0082B5;fill-rule:evenodd;stroke:#0082B5;stroke-width:1.41689849px;stroke-linecap:butt;stroke-linejoin:miter;stroke-opacity:1"
       id="path3416"
       cx="261.59924"
       cy="187.24095"
       r="10.722116" />
      <text
       xml:space="preserve"
       style="font-style:normal;font-weight:normal;font-size:40px;line-height:125%;font-family:sans-serif;letter-spacing:0px;word-spacing:0px;fill:#005582;fill-opacity:1;stroke:none;stroke-width:1px;stroke-linecap:butt;stroke-linejoin:miter;stroke-opacity:1"
       x="275.8931"
       y="172.10632"
       id="text3428"
       sodipodi:linespacing="125%"><tspan
         sodipodi:role="line"
         id="tspan3430"
         x="275.8931"
         y="172.10632">Nantes</tspan></text>
  </g>
</svg>
